<mxfile host="app.diagrams.net" modified="2025-03-07T11:26:13.738Z" agent="Mozilla/5.0 (Windows NT 10.0; Win64; x64) AppleWebKit/537.36 (KHTML, like Gecko) Chrome/133.0.0.0 Safari/537.36 Edg/133.0.0.0" etag="6BvSZm8JaZNdlZeh8lMB" version="24.0.7" type="github">
  <diagram name="Page-1" id="SkEKgCQDsDRQQQ8Bk1pQ">
    <mxGraphModel dx="1113" dy="1750" grid="1" gridSize="10" guides="1" tooltips="1" connect="1" arrows="1" fold="1" page="1" pageScale="1" pageWidth="850" pageHeight="1100" math="0" shadow="0">
      <root>
        <mxCell id="0" />
        <mxCell id="1" parent="0" />
        <mxCell id="ZaWyxYJnoPDAj6jRP7Kb-4" value="" style="rounded=0;whiteSpace=wrap;html=1;fillColor=#dae8fc;strokeColor=#6c8ebf;opacity=30;movable=0;resizable=0;rotatable=0;deletable=0;editable=0;locked=1;connectable=0;" vertex="1" parent="1">
          <mxGeometry y="-110" width="1250" height="1260" as="geometry" />
        </mxCell>
        <mxCell id="ZaWyxYJnoPDAj6jRP7Kb-5" value="&lt;font style=&quot;font-size: 40px;&quot;&gt;Workload:&lt;b&gt; root&lt;/b&gt;&lt;/font&gt;" style="text;html=1;align=center;verticalAlign=middle;whiteSpace=wrap;rounded=0;" vertex="1" parent="1">
          <mxGeometry x="130" y="-160" width="320" height="30" as="geometry" />
        </mxCell>
        <mxCell id="ZaWyxYJnoPDAj6jRP7Kb-9" value="&lt;font style=&quot;font-size: 40px;&quot;&gt;Workload:&lt;b&gt; env&lt;/b&gt;&lt;/font&gt;" style="text;html=1;align=center;verticalAlign=middle;whiteSpace=wrap;rounded=0;" vertex="1" parent="1">
          <mxGeometry x="1200" y="-180" width="320" height="30" as="geometry" />
        </mxCell>
        <mxCell id="ZaWyxYJnoPDAj6jRP7Kb-11" value="&lt;b&gt;Resource Group&lt;/b&gt;&lt;div&gt;env-rg&lt;/div&gt;" style="image;aspect=fixed;html=1;points=[];align=center;fontSize=12;image=img/lib/azure2/general/Resource_Groups.svg;" vertex="1" parent="1">
          <mxGeometry x="40" width="68" height="64" as="geometry" />
        </mxCell>
        <mxCell id="ZaWyxYJnoPDAj6jRP7Kb-19" style="edgeStyle=orthogonalEdgeStyle;rounded=0;orthogonalLoop=1;jettySize=auto;html=1;" edge="1" parent="1" source="ZaWyxYJnoPDAj6jRP7Kb-16" target="ZaWyxYJnoPDAj6jRP7Kb-66">
          <mxGeometry relative="1" as="geometry">
            <mxPoint x="520" y="350" as="targetPoint" />
            <Array as="points">
              <mxPoint x="375" y="350" />
            </Array>
          </mxGeometry>
        </mxCell>
        <mxCell id="ZaWyxYJnoPDAj6jRP7Kb-20" value="&lt;b&gt;ELSE&lt;/b&gt;" style="edgeLabel;html=1;align=center;verticalAlign=middle;resizable=0;points=[];" vertex="1" connectable="0" parent="ZaWyxYJnoPDAj6jRP7Kb-19">
          <mxGeometry x="0.0917" y="1" relative="1" as="geometry">
            <mxPoint x="-31" as="offset" />
          </mxGeometry>
        </mxCell>
        <mxCell id="ZaWyxYJnoPDAj6jRP7Kb-45" style="edgeStyle=orthogonalEdgeStyle;rounded=0;orthogonalLoop=1;jettySize=auto;html=1;strokeColor=#00E000;" edge="1" parent="1" source="ZaWyxYJnoPDAj6jRP7Kb-16" target="ZaWyxYJnoPDAj6jRP7Kb-67">
          <mxGeometry relative="1" as="geometry">
            <mxPoint x="523.0000000000002" y="210" as="targetPoint" />
          </mxGeometry>
        </mxCell>
        <mxCell id="ZaWyxYJnoPDAj6jRP7Kb-16" value="&lt;b&gt;IF&lt;/b&gt;&lt;div&gt;user specifies that storage accounts &lt;b&gt;&lt;font color=&quot;#00e000&quot;&gt;ALREADY&lt;/font&gt;&lt;/b&gt;&lt;/div&gt;&lt;div&gt;&lt;b&gt;&lt;font color=&quot;#00e000&quot;&gt;EXIST&lt;/font&gt;&lt;/b&gt;&lt;/div&gt;" style="rhombus;whiteSpace=wrap;html=1;strokeColor=#00E000;" vertex="1" parent="1">
          <mxGeometry x="310" y="160" width="130" height="100" as="geometry" />
        </mxCell>
        <mxCell id="ZaWyxYJnoPDAj6jRP7Kb-28" value="" style="swimlane;startSize=0;fillColor=none;strokeWidth=3;dashed=1;strokeColor=#007AF5;" vertex="1" parent="1">
          <mxGeometry x="293" y="110" width="477" height="530" as="geometry" />
        </mxCell>
        <mxCell id="ZaWyxYJnoPDAj6jRP7Kb-24" value="" style="swimlane;startSize=0;fillColor=none;strokeWidth=3;dashed=1;" vertex="1" parent="1">
          <mxGeometry x="200" y="40" width="600" height="1232.36" as="geometry" />
        </mxCell>
        <mxCell id="ZaWyxYJnoPDAj6jRP7Kb-27" value="&lt;b&gt;Subnet&lt;/b&gt;&lt;div&gt;env-subnet_default&lt;/div&gt;" style="image;aspect=fixed;html=1;points=[];align=center;fontSize=12;image=img/lib/azure2/networking/Subnet.svg;imageBackground=default;" vertex="1" parent="ZaWyxYJnoPDAj6jRP7Kb-24">
          <mxGeometry x="61" y="49.27999999999997" width="68" height="40.72" as="geometry" />
        </mxCell>
        <mxCell id="ZaWyxYJnoPDAj6jRP7Kb-58" style="edgeStyle=orthogonalEdgeStyle;rounded=0;orthogonalLoop=1;jettySize=auto;html=1;strokeColor=#FF00FF;" edge="1" parent="ZaWyxYJnoPDAj6jRP7Kb-24" source="ZaWyxYJnoPDAj6jRP7Kb-48" target="ZaWyxYJnoPDAj6jRP7Kb-43">
          <mxGeometry relative="1" as="geometry">
            <Array as="points">
              <mxPoint x="424" y="570" />
              <mxPoint x="316" y="570" />
            </Array>
          </mxGeometry>
        </mxCell>
        <mxCell id="ZaWyxYJnoPDAj6jRP7Kb-48" value="&lt;b&gt;Private Endpoint&lt;/b&gt;&lt;div&gt;env-pe-databricks_browser_authentication&lt;/div&gt;" style="image;aspect=fixed;html=1;points=[];align=center;fontSize=12;image=img/lib/azure2/other/Private_Endpoints.svg;" vertex="1" parent="ZaWyxYJnoPDAj6jRP7Kb-24">
          <mxGeometry x="390" y="456.0000000000001" width="68" height="64.68" as="geometry" />
        </mxCell>
        <mxCell id="ZaWyxYJnoPDAj6jRP7Kb-43" value="&lt;b&gt;Databricks Private Link&lt;/b&gt;&lt;div&gt;env-dns_vnet_link-databricks&lt;/div&gt;" style="image;aspect=fixed;html=1;points=[];align=center;fontSize=12;image=img/lib/azure2/networking/Private_Link.svg;" vertex="1" parent="ZaWyxYJnoPDAj6jRP7Kb-24">
          <mxGeometry x="440" y="620" width="72" height="66" as="geometry" />
        </mxCell>
        <mxCell id="ZaWyxYJnoPDAj6jRP7Kb-51" style="edgeStyle=orthogonalEdgeStyle;rounded=0;orthogonalLoop=1;jettySize=auto;html=1;" edge="1" parent="ZaWyxYJnoPDAj6jRP7Kb-24" source="ZaWyxYJnoPDAj6jRP7Kb-30" target="ZaWyxYJnoPDAj6jRP7Kb-33">
          <mxGeometry relative="1" as="geometry">
            <mxPoint x="-67" y="740.2211111111109" as="sourcePoint" />
            <Array as="points">
              <mxPoint x="-10" y="653" />
              <mxPoint x="-10" y="653" />
            </Array>
          </mxGeometry>
        </mxCell>
        <mxCell id="ZaWyxYJnoPDAj6jRP7Kb-52" style="edgeStyle=orthogonalEdgeStyle;rounded=0;orthogonalLoop=1;jettySize=auto;html=1;" edge="1" parent="ZaWyxYJnoPDAj6jRP7Kb-24" source="ZaWyxYJnoPDAj6jRP7Kb-30" target="ZaWyxYJnoPDAj6jRP7Kb-35">
          <mxGeometry relative="1" as="geometry">
            <mxPoint x="-95.88888888888891" y="774.11" as="sourcePoint" />
            <Array as="points">
              <mxPoint x="-100" y="740" />
              <mxPoint x="95" y="740" />
            </Array>
          </mxGeometry>
        </mxCell>
        <mxCell id="ZaWyxYJnoPDAj6jRP7Kb-30" value="&lt;b&gt;Databricks Workspace&lt;/b&gt;&lt;div&gt;env-dbw&lt;/div&gt;" style="image;aspect=fixed;html=1;points=[];align=center;fontSize=12;image=img/lib/azure2/analytics/Azure_Databricks.svg;" vertex="1" parent="ZaWyxYJnoPDAj6jRP7Kb-24">
          <mxGeometry x="-129.8" y="600" width="62.8" height="68" as="geometry" />
        </mxCell>
        <mxCell id="ZaWyxYJnoPDAj6jRP7Kb-33" value="&lt;b&gt;Subnet&lt;/b&gt;&lt;div&gt;env-subnet_public_databricks&lt;/div&gt;" style="image;aspect=fixed;html=1;points=[];align=center;fontSize=12;image=img/lib/azure2/networking/Subnet.svg;imageBackground=default;" vertex="1" parent="ZaWyxYJnoPDAj6jRP7Kb-24">
          <mxGeometry x="61" y="632.64" width="68" height="40.72" as="geometry" />
        </mxCell>
        <mxCell id="ZaWyxYJnoPDAj6jRP7Kb-35" value="&lt;b&gt;Subnet&lt;/b&gt;&lt;div&gt;env-subnet_private_databricks&lt;/div&gt;" style="image;aspect=fixed;html=1;points=[];align=center;fontSize=12;image=img/lib/azure2/networking/Subnet.svg;imageBackground=default;" vertex="1" parent="ZaWyxYJnoPDAj6jRP7Kb-24">
          <mxGeometry x="61" y="720" width="68" height="40.72" as="geometry" />
        </mxCell>
        <mxCell id="ZaWyxYJnoPDAj6jRP7Kb-60" style="edgeStyle=orthogonalEdgeStyle;rounded=0;orthogonalLoop=1;jettySize=auto;html=1;strokeColor=#FF3333;" edge="1" parent="ZaWyxYJnoPDAj6jRP7Kb-24" source="ZaWyxYJnoPDAj6jRP7Kb-40" target="ZaWyxYJnoPDAj6jRP7Kb-33">
          <mxGeometry relative="1" as="geometry" />
        </mxCell>
        <mxCell id="ZaWyxYJnoPDAj6jRP7Kb-61" style="edgeStyle=orthogonalEdgeStyle;rounded=0;orthogonalLoop=1;jettySize=auto;html=1;strokeColor=#FF3333;" edge="1" parent="ZaWyxYJnoPDAj6jRP7Kb-24" source="ZaWyxYJnoPDAj6jRP7Kb-40" target="ZaWyxYJnoPDAj6jRP7Kb-35">
          <mxGeometry relative="1" as="geometry">
            <Array as="points">
              <mxPoint x="258" y="740" />
            </Array>
          </mxGeometry>
        </mxCell>
        <mxCell id="ZaWyxYJnoPDAj6jRP7Kb-40" value="&lt;b&gt;Network Security Group&lt;/b&gt;&lt;div&gt;env-nsg_databricks&lt;/div&gt;" style="image;aspect=fixed;html=1;points=[];align=center;fontSize=12;image=img/lib/azure2/networking/Network_Security_Groups.svg;" vertex="1" parent="ZaWyxYJnoPDAj6jRP7Kb-24">
          <mxGeometry x="240" y="631.18" width="35.94" height="43.64" as="geometry" />
        </mxCell>
        <mxCell id="ZaWyxYJnoPDAj6jRP7Kb-26" value="&lt;b&gt;Virtual Network&lt;/b&gt;&lt;div&gt;env-vnet&lt;/div&gt;" style="image;aspect=fixed;html=1;points=[];align=center;fontSize=12;image=img/lib/azure2/networking/Virtual_Networks.svg;imageBackground=default;" vertex="1" parent="1">
          <mxGeometry x="170" y="20" width="67" height="40" as="geometry" />
        </mxCell>
        <mxCell id="ZaWyxYJnoPDAj6jRP7Kb-57" style="edgeStyle=orthogonalEdgeStyle;rounded=0;orthogonalLoop=1;jettySize=auto;html=1;strokeColor=#FF00FF;" edge="1" parent="1" source="ZaWyxYJnoPDAj6jRP7Kb-49" target="ZaWyxYJnoPDAj6jRP7Kb-43">
          <mxGeometry relative="1" as="geometry">
            <Array as="points">
              <mxPoint x="404" y="610" />
              <mxPoint x="516" y="610" />
            </Array>
          </mxGeometry>
        </mxCell>
        <mxCell id="ZaWyxYJnoPDAj6jRP7Kb-49" value="&lt;b&gt;Private Endpoint&lt;/b&gt;&lt;div&gt;env-pe-databricks_ui_api&lt;/div&gt;" style="image;aspect=fixed;html=1;points=[];align=center;fontSize=12;image=img/lib/azure2/other/Private_Endpoints.svg;" vertex="1" parent="1">
          <mxGeometry x="370" y="496.65999999999997" width="68" height="64.68" as="geometry" />
        </mxCell>
        <mxCell id="ZaWyxYJnoPDAj6jRP7Kb-55" style="edgeStyle=orthogonalEdgeStyle;rounded=0;orthogonalLoop=1;jettySize=auto;html=1;strokeColor=#FF00FF;" edge="1" parent="1" source="ZaWyxYJnoPDAj6jRP7Kb-63" target="ZaWyxYJnoPDAj6jRP7Kb-49">
          <mxGeometry relative="1" as="geometry">
            <Array as="points">
              <mxPoint x="102" y="470" />
              <mxPoint x="404" y="470" />
            </Array>
          </mxGeometry>
        </mxCell>
        <mxCell id="ZaWyxYJnoPDAj6jRP7Kb-46" value="&lt;b&gt;DNS Zone&lt;/b&gt;&lt;div&gt;privatelink.azuredatabricks.net&lt;/div&gt;" style="image;aspect=fixed;html=1;points=[];align=center;fontSize=12;image=img/lib/azure2/networking/DNS_Zones.svg;" vertex="1" parent="1">
          <mxGeometry x="880" y="662" width="64" height="64" as="geometry" />
        </mxCell>
        <mxCell id="ZaWyxYJnoPDAj6jRP7Kb-47" style="edgeStyle=orthogonalEdgeStyle;rounded=0;orthogonalLoop=1;jettySize=auto;html=1;strokeColor=#FF00FF;" edge="1" parent="1" source="ZaWyxYJnoPDAj6jRP7Kb-43" target="ZaWyxYJnoPDAj6jRP7Kb-46">
          <mxGeometry relative="1" as="geometry" />
        </mxCell>
        <mxCell id="ZaWyxYJnoPDAj6jRP7Kb-59" value="&lt;b&gt;Data Factory&lt;/b&gt;&lt;div&gt;env-adf&lt;/div&gt;" style="image;aspect=fixed;html=1;points=[];align=center;fontSize=12;image=img/lib/azure2/databases/Data_Factory.svg;" vertex="1" parent="1">
          <mxGeometry x="67.6" y="860" width="68" height="68" as="geometry" />
        </mxCell>
        <mxCell id="ZaWyxYJnoPDAj6jRP7Kb-63" value="&lt;b&gt;IF&lt;/b&gt;&lt;div&gt;user specifies &lt;font color=&quot;#ff00ff&quot;&gt;&lt;b&gt;PREMIUM&lt;/b&gt;&lt;/font&gt;&lt;/div&gt;&lt;div&gt;SKU&lt;/div&gt;" style="rhombus;whiteSpace=wrap;html=1;strokeColor=#FF00FF;" vertex="1" parent="1">
          <mxGeometry x="52.6" y="425" width="98" height="90" as="geometry" />
        </mxCell>
        <mxCell id="ZaWyxYJnoPDAj6jRP7Kb-64" value="" style="edgeStyle=orthogonalEdgeStyle;rounded=0;orthogonalLoop=1;jettySize=auto;html=1;strokeColor=#FF00FF;" edge="1" parent="1" source="ZaWyxYJnoPDAj6jRP7Kb-30" target="ZaWyxYJnoPDAj6jRP7Kb-63">
          <mxGeometry relative="1" as="geometry">
            <mxPoint x="102" y="640" as="sourcePoint" />
            <mxPoint x="404" y="497" as="targetPoint" />
            <Array as="points" />
          </mxGeometry>
        </mxCell>
        <mxCell id="ZaWyxYJnoPDAj6jRP7Kb-65" value="" style="edgeStyle=orthogonalEdgeStyle;rounded=0;orthogonalLoop=1;jettySize=auto;html=1;strokeColor=#000000;" edge="1" parent="1" source="ZaWyxYJnoPDAj6jRP7Kb-30" target="ZaWyxYJnoPDAj6jRP7Kb-63">
          <mxGeometry relative="1" as="geometry">
            <mxPoint x="302" y="680" as="sourcePoint" />
            <mxPoint x="824" y="536" as="targetPoint" />
            <Array as="points" />
          </mxGeometry>
        </mxCell>
        <mxCell id="ZaWyxYJnoPDAj6jRP7Kb-56" style="edgeStyle=orthogonalEdgeStyle;rounded=0;orthogonalLoop=1;jettySize=auto;html=1;strokeColor=#FF00FF;" edge="1" parent="1" source="ZaWyxYJnoPDAj6jRP7Kb-63" target="ZaWyxYJnoPDAj6jRP7Kb-48">
          <mxGeometry relative="1" as="geometry">
            <Array as="points">
              <mxPoint x="624" y="470" />
            </Array>
          </mxGeometry>
        </mxCell>
        <mxCell id="ZaWyxYJnoPDAj6jRP7Kb-66" value="&lt;b&gt;Storage Account&lt;/b&gt;&lt;div&gt;env-adls&lt;/div&gt;" style="image;aspect=fixed;html=1;points=[];align=center;fontSize=12;image=img/lib/azure2/storage/Storage_Accounts.svg;" vertex="1" parent="1">
          <mxGeometry x="510" y="320" width="65" height="52" as="geometry" />
        </mxCell>
        <mxCell id="ZaWyxYJnoPDAj6jRP7Kb-67" value="&lt;b&gt;Private Endpoint&lt;/b&gt;&lt;div&gt;env-pe_adls&lt;/div&gt;&lt;div&gt;&lt;br&gt;&lt;/div&gt;&lt;div&gt;Connects to existing storage accounts.&lt;/div&gt;" style="image;aspect=fixed;html=1;points=[];align=center;fontSize=12;image=img/lib/azure2/other/Private_Endpoints.svg;" vertex="1" parent="1">
          <mxGeometry x="510" y="177.66" width="68" height="64.68" as="geometry" />
        </mxCell>
        <mxCell id="ZaWyxYJnoPDAj6jRP7Kb-12" value="&lt;b&gt;Key Vault&lt;/b&gt;&lt;div&gt;env-akv&lt;/div&gt;" style="image;aspect=fixed;html=1;points=[];align=center;fontSize=12;image=img/lib/azure2/security/Key_Vaults.svg;" vertex="1" parent="1">
          <mxGeometry x="60" y="1020.0000000000001" width="68" height="68" as="geometry" />
        </mxCell>
      </root>
    </mxGraphModel>
  </diagram>
</mxfile>
